<?xml version="1.0" standalone="no"?><!DOCTYPE svg PUBLIC "-//W3C//DTD SVG 1.1//EN" "http://www.w3.org/Graphics/SVG/1.1/DTD/svg11.dtd"><svg t="1722669491717" class="icon" viewBox="0 0 1024 1024" version="1.1" xmlns="http://www.w3.org/2000/svg" p-id="6890" xmlns:xlink="http://www.w3.org/1999/xlink" width="200" height="200"><path d="M512 512m-448 0a448 448 0 1 0 896 0 448 448 0 1 0-896 0Z" fill="#5090F1" p-id="6891"></path><path d="M512 455.431l169.706-169.705a8 8 0 0 1 11.313 0l45.255 45.255a8 8 0 0 1 0 11.313L568.57 512l169.705 169.706a8 8 0 0 1 0 11.313l-45.255 45.255a8 8 0 0 1-11.313 0L512 568.57 342.294 738.274a8 8 0 0 1-11.313 0l-45.255-45.255a8 8 0 0 1 0-11.313L455.43 512 285.726 342.294a8 8 0 0 1 0-11.313l45.255-45.255a8 8 0 0 1 11.313 0L512 455.43z" fill="#FFFFFF" p-id="6892"></path></svg>