<?xml version="1.0" standalone="no"?><!DOCTYPE svg PUBLIC "-//W3C//DTD SVG 1.1//EN" "http://www.w3.org/Graphics/SVG/1.1/DTD/svg11.dtd"><svg t="1722666683866" class="icon" viewBox="0 0 1024 1024" version="1.1" xmlns="http://www.w3.org/2000/svg" p-id="4932" xmlns:xlink="http://www.w3.org/1999/xlink" width="200" height="200"><path d="M665.6 204.8H358.4c-84.48 0-153.6 69.12-153.6 153.6v307.2c0 84.48 69.12 153.6 153.6 153.6h307.2c84.48 0 153.6-69.12 153.6-153.6V358.4c0-84.48-69.12-153.6-153.6-153.6z" fill="#CCDAFF" p-id="4933"></path><path d="M634.88 512c0 12.8-10.24 23.04-23.04 23.04h-76.8v76.8c0 12.8-10.24 23.04-23.04 23.04s-23.04-10.24-23.04-23.04v-76.8h-76.8c-12.8 0-23.04-10.24-23.04-23.04s10.24-23.04 23.04-23.04h76.8v-76.8c0-12.8 10.24-23.04 23.04-23.04s23.04 10.24 23.04 23.04v76.8h76.8c12.8 0 23.04 10.24 23.04 23.04z" fill="#7A7AF9" p-id="4934"></path></svg>